<svg width="24" height="24" viewBox="0 0 24 24" fill="none" xmlns="http://www.w3.org/2000/svg">
<path d="M18 18C21.3137 14.6863 21.3137 9.31371 18 6C14.6863 2.68629 9.31371 2.68629 6 6C2.68629 9.31371 2.68629 14.6863 6 18C9.31371 21.3137 14.6863 21.3137 18 18Z" fill="#FCBC00"/>
<path opacity="0.1" d="M11.9435 2.75085C6.83525 2.78189 2.71913 6.94802 2.75017 12.0565C2.78122 17.1647 6.94735 21.2808 12.0558 21.2498C17.164 21.2187 21.2802 17.0526 21.2491 11.9441C21.2181 6.83592 17.0519 2.7198 11.9435 2.75085ZM12.0465 19.6959C7.79629 19.7217 4.32992 16.2971 4.30409 12.0469C4.27827 7.79668 7.70288 4.33031 11.9531 4.30449C16.2033 4.27866 19.6696 7.70327 19.6955 11.9535C19.7213 16.2037 16.2967 19.67 12.0465 19.6959Z" fill="#C57F0C"/>
<path d="M11.9381 1.80189C6.30573 1.83596 1.76761 6.42958 1.80195 12.062C1.83602 17.6944 6.42964 22.2325 12.062 22.1982C17.6944 22.1638 22.2326 17.5705 22.1982 11.9381C22.1642 6.30567 17.5705 1.76755 11.9381 1.80189ZM12.0516 20.4852C7.36539 20.5137 3.54352 16.7377 3.51494 12.0515C3.48637 7.36533 7.26237 3.54345 11.9486 3.51488C16.6348 3.48631 20.4569 7.26231 20.4852 11.9485C20.5138 16.6347 16.7378 20.4566 12.0516 20.4852Z" fill="#FFD000"/>
<g clip-path="url(#clip0_9924_1235)">
<path fill-rule="evenodd" clip-rule="evenodd" d="M7.4287 10.0522V11.3022H7.61016H7.7916V10.8508V10.3995H8.12048C8.33217 10.3995 8.44935 10.3953 8.44935 10.3879C8.44935 10.3815 8.45956 10.3763 8.47203 10.3763C8.48452 10.3763 8.49471 10.3711 8.49471 10.3647C8.49471 10.3584 8.50273 10.3532 8.51253 10.3532C8.53545 10.3532 8.56276 10.3253 8.56276 10.3019C8.56276 10.2919 8.56786 10.2837 8.5741 10.2837C8.58034 10.2837 8.58544 10.2681 8.58544 10.249C8.58544 10.2299 8.59055 10.2143 8.59678 10.2143C8.6042 10.2143 8.60812 9.99822 8.60812 9.58928C8.60812 9.18033 8.6042 8.96428 8.59678 8.96428C8.59055 8.96428 8.58544 8.95109 8.58544 8.93496C8.58544 8.90236 8.518 8.82539 8.48942 8.82539C8.47986 8.82539 8.47203 8.82019 8.47203 8.81382C8.47203 8.80627 8.29059 8.80225 7.95037 8.80225H7.4287V10.0522ZM12.2825 9.27678V9.47354H12.4477C12.5758 9.47354 12.6166 9.46982 12.6292 9.457C12.6418 9.44409 12.6454 9.401 12.6454 9.26024V9.08002H12.4639H12.2825V9.27678ZM15.0042 9.26024C15.0042 9.401 15.0078 9.44409 15.0204 9.457C15.0439 9.48093 15.3502 9.48093 15.3736 9.457C15.3971 9.43307 15.3971 9.12048 15.3736 9.09656C15.3609 9.08364 15.3187 9.08002 15.1808 9.08002H15.0042V9.26024ZM8.22255 9.60085V10.0754H8.00707H7.7916V9.60085V9.12632H8.00707H8.22255V9.60085ZM11.4886 9.46196V9.68187H11.3979H11.3072V9.8439V10.0059H11.3979H11.4886V10.5962C11.4886 10.982 11.4926 11.1865 11.5 11.1865C11.5062 11.1865 11.5113 11.1945 11.5113 11.2044C11.5113 11.2325 11.564 11.2791 11.5959 11.2791C11.6117 11.2791 11.6247 11.2843 11.6247 11.2906C11.6247 11.298 11.7079 11.3022 11.8515 11.3022H12.0783V11.1402V10.9782H11.9649H11.8515V10.492V10.0059H11.9649H12.0783V9.8439V9.68187H11.9649H11.8515V9.46196V9.24206H11.6701H11.4886V9.46196ZM14.2246 9.25937C14.2144 9.27118 14.2104 9.33289 14.2104 9.47884V9.68187H14.131H14.0516V9.8439V10.0059H14.131H14.2104V10.5846C14.2104 10.9627 14.2143 11.1633 14.2217 11.1633C14.228 11.1633 14.2331 11.1713 14.2331 11.1811C14.2331 11.2041 14.3065 11.2791 14.3291 11.2791C14.3386 11.2791 14.3465 11.2843 14.3465 11.2906C14.3465 11.298 14.4334 11.3022 14.5846 11.3022H14.8228V11.1402V10.9782H14.7142C14.6353 10.9782 14.6013 10.9737 14.5895 10.9616C14.576 10.9478 14.5733 10.867 14.5733 10.4755V10.0059H14.6867H14.8001V9.8439V9.68187H14.6867H14.5733V9.46196V9.24206L14.406 9.2425C14.2762 9.24284 14.2356 9.24662 14.2246 9.25937ZM8.94835 9.69344C8.94835 9.6998 8.94046 9.70502 8.93082 9.70502C8.92118 9.70502 8.90077 9.7178 8.88546 9.73343C8.87015 9.74906 8.85762 9.76989 8.85762 9.77972C8.85762 9.78956 8.85251 9.79761 8.84628 9.79761C8.83884 9.79761 8.83494 10.0368 8.83494 10.492C8.83494 10.9473 8.83884 11.1865 8.84628 11.1865C8.85251 11.1865 8.85762 11.1947 8.85762 11.2047C8.85762 11.2281 8.88493 11.2559 8.90784 11.2559C8.91764 11.2559 8.92566 11.2611 8.92566 11.2675C8.92566 11.2739 8.93587 11.2791 8.94835 11.2791C8.96082 11.2791 8.97103 11.2843 8.97103 11.2906C8.97103 11.2981 9.10712 11.3022 9.3566 11.3022C9.6061 11.3022 9.74219 11.2981 9.74219 11.2906C9.74219 11.2843 9.75239 11.2791 9.76487 11.2791C9.77734 11.2791 9.78755 11.2739 9.78755 11.2675C9.78755 11.2611 9.79557 11.2559 9.80536 11.2559C9.83214 11.2559 9.85559 11.2266 9.85559 11.1931C9.85559 11.1767 9.86069 11.1633 9.86693 11.1633C9.87436 11.1633 9.87827 10.9319 9.87827 10.492C9.87827 10.0522 9.87436 9.82075 9.86693 9.82075C9.86069 9.82075 9.85559 9.8075 9.85559 9.7913C9.85559 9.75881 9.80995 9.70502 9.78239 9.70502C9.77275 9.70502 9.76487 9.6998 9.76487 9.69344C9.76487 9.68594 9.62121 9.68187 9.3566 9.68187C9.09199 9.68187 8.94835 9.68594 8.94835 9.69344ZM10.2412 9.69344C10.2412 9.6998 10.2333 9.70502 10.2237 9.70502C10.201 9.70502 10.1504 9.75657 10.1504 9.77972C10.1504 9.78956 10.1453 9.79761 10.1391 9.79761C10.1317 9.79761 10.1278 10.0368 10.1278 10.492C10.1278 10.9473 10.1317 11.1865 10.1391 11.1865C10.1453 11.1865 10.1504 11.1945 10.1504 11.2044C10.1504 11.2325 10.2032 11.2791 10.235 11.2791C10.2509 11.2791 10.2639 11.2843 10.2639 11.2906C10.2639 11.2981 10.3962 11.3022 10.6381 11.3022C10.88 11.3022 11.0123 11.2981 11.0123 11.2906C11.0123 11.2843 11.0225 11.2791 11.035 11.2791C11.0475 11.2791 11.0577 11.2739 11.0577 11.2675C11.0577 11.2611 11.0657 11.2559 11.0755 11.2559C11.0984 11.2559 11.1257 11.2281 11.1257 11.2047C11.1257 11.1947 11.1308 11.1865 11.1371 11.1865C11.1442 11.1865 11.1484 11.1055 11.1484 10.9666V10.7467H10.9783H10.8082V10.869C10.8082 10.9596 10.804 10.9957 10.792 11.0079C10.7796 11.0206 10.7402 11.0244 10.6219 11.0244H10.468V10.8045V10.5846H10.7575H11.047L11.0977 10.5329L11.1484 10.4811V10.1393C11.1484 9.91924 11.1444 9.79761 11.1371 9.79761C11.1308 9.79761 11.1257 9.78956 11.1257 9.77972C11.1257 9.7516 11.073 9.70502 11.0412 9.70502C11.0253 9.70502 11.0123 9.6998 11.0123 9.69344C11.0123 9.68595 10.8762 9.68187 10.6268 9.68187C10.3773 9.68187 10.2412 9.68595 10.2412 9.69344ZM12.2825 10.492V11.3022H12.4477C12.5758 11.3022 12.6166 11.2985 12.6292 11.2857C12.6429 11.2717 12.6454 11.1479 12.6454 10.4755V9.68187H12.4639H12.2825V10.492ZM13.0083 9.69344C13.0083 9.6998 13.0005 9.70502 12.9909 9.70502C12.9813 9.70502 12.9558 9.72307 12.9342 9.74514L12.8949 9.78526V10.0576C12.8949 10.2315 12.899 10.33 12.9062 10.33C12.9124 10.33 12.9176 10.338 12.9176 10.3478C12.9176 10.3708 12.991 10.4457 13.0136 10.4457C13.0231 10.4457 13.031 10.451 13.031 10.4573C13.031 10.4637 13.04 10.4689 13.0511 10.4689C13.0622 10.4689 13.0787 10.4793 13.0877 10.492C13.0967 10.5048 13.1131 10.5152 13.1242 10.5152C13.1353 10.5152 13.1444 10.5204 13.1444 10.5268C13.1444 10.5331 13.1534 10.5383 13.1645 10.5383C13.1756 10.5383 13.1921 10.5488 13.2011 10.5615C13.2101 10.5742 13.2265 10.5846 13.2376 10.5846C13.2487 10.5846 13.2578 10.5898 13.2578 10.5962C13.2578 10.6026 13.2669 10.6078 13.2779 10.6078C13.289 10.6078 13.3055 10.6182 13.3145 10.6309C13.3235 10.6437 13.3399 10.6541 13.351 10.6541C13.3621 10.6541 13.3712 10.6593 13.3712 10.6657C13.3712 10.672 13.3803 10.6772 13.3913 10.6772C13.4025 10.6772 13.4189 10.6876 13.4279 10.7004C13.4369 10.7131 13.4533 10.7235 13.4644 10.7235C13.4755 10.7235 13.4846 10.7287 13.4846 10.7351C13.4846 10.7415 13.4948 10.7467 13.5073 10.7467C13.5287 10.7467 13.5299 10.7544 13.5299 10.8856V11.0244H13.3987C13.3001 11.0244 13.2635 11.0203 13.2513 11.0079C13.2393 10.9957 13.2351 10.9596 13.2351 10.869V10.7467H13.065H12.8949V10.9666C12.8949 11.1055 12.899 11.1865 12.9062 11.1865C12.9124 11.1865 12.9176 11.1945 12.9176 11.2044C12.9176 11.2325 12.9703 11.2791 13.0021 11.2791C13.018 11.2791 13.031 11.2843 13.031 11.2906C13.031 11.2981 13.1595 11.3022 13.3939 11.3022C13.6282 11.3022 13.7568 11.2981 13.7568 11.2906C13.7568 11.2843 13.767 11.2791 13.7794 11.2791C13.7919 11.2791 13.8021 11.2739 13.8021 11.2675C13.8021 11.2611 13.8123 11.2559 13.8248 11.2559C13.8399 11.2559 13.8475 11.2482 13.8475 11.2328C13.8475 11.22 13.8526 11.2096 13.8588 11.2096C13.8651 11.2096 13.8702 11.1992 13.8702 11.1865C13.8702 11.1737 13.8753 11.1633 13.8815 11.1633C13.8887 11.1633 13.8928 11.0669 13.8928 10.8971C13.8928 10.7274 13.8887 10.6309 13.8815 10.6309C13.8753 10.6309 13.8702 10.6229 13.8702 10.6132C13.8702 10.5915 13.7973 10.5152 13.7767 10.5152C13.7685 10.5152 13.7544 10.5048 13.7454 10.492C13.7364 10.4793 13.72 10.4689 13.7089 10.4689C13.6978 10.4689 13.6887 10.4637 13.6887 10.4573C13.6887 10.451 13.6796 10.4457 13.6685 10.4457C13.6574 10.4457 13.641 10.4353 13.632 10.4226C13.623 10.4099 13.6066 10.3995 13.5955 10.3995C13.5844 10.3995 13.5753 10.3942 13.5753 10.3879C13.5753 10.3815 13.5662 10.3763 13.5551 10.3763C13.544 10.3763 13.5276 10.3659 13.5186 10.3532C13.5096 10.3404 13.4932 10.33 13.4821 10.33C13.471 10.33 13.4619 10.3248 13.4619 10.3184C13.4619 10.3121 13.4517 10.3069 13.4392 10.3069C13.4267 10.3069 13.4165 10.3017 13.4165 10.2953C13.4165 10.2889 13.4075 10.2837 13.3964 10.2837C13.3853 10.2837 13.3688 10.2733 13.3598 10.2606C13.3508 10.2478 13.3344 10.2374 13.3233 10.2374C13.3122 10.2374 13.3031 10.2322 13.3031 10.2258C13.3031 10.2195 13.2951 10.2143 13.2853 10.2143C13.2471 10.2143 13.2351 10.1839 13.2351 10.087C13.2351 10.0207 13.2399 9.9878 13.2513 9.97618C13.2635 9.96376 13.3001 9.95964 13.3987 9.95964H13.5299V10.0704C13.5299 10.151 13.5344 10.1857 13.5461 10.1977C13.5587 10.2106 13.5995 10.2143 13.7276 10.2143H13.8928V10.0175C13.8928 9.89405 13.8886 9.82075 13.8815 9.82075C13.8753 9.82075 13.8702 9.8075 13.8702 9.7913C13.8702 9.75337 13.8228 9.70502 13.7856 9.70502C13.7697 9.70502 13.7568 9.6998 13.7568 9.69344C13.7568 9.68597 13.6244 9.68187 13.3825 9.68187C13.1406 9.68187 13.0083 9.68597 13.0083 9.69344ZM15.0269 10.492V11.3022H15.197H15.3671V10.492V9.68187H15.197H15.0269V10.492ZM15.7527 9.69344C15.7527 9.6998 15.7449 9.70502 15.7353 9.70502C15.7258 9.70502 15.7002 9.72307 15.6786 9.74514L15.6393 9.78526V10.492V11.1988L15.6786 11.2389C15.7028 11.2636 15.729 11.2791 15.7467 11.2791C15.7625 11.2791 15.7754 11.2843 15.7754 11.2906C15.7754 11.2981 15.9039 11.3022 16.1383 11.3022C16.3727 11.3022 16.5012 11.2981 16.5012 11.2906C16.5012 11.2843 16.5141 11.2791 16.5299 11.2791C16.5682 11.2791 16.6372 11.2086 16.6372 11.1695C16.6372 11.1534 16.6424 11.1402 16.6486 11.1402C16.6558 11.1402 16.66 11.0553 16.66 10.9087V10.6772H16.4785H16.297V10.8277V10.9782H16.1383H15.9795V10.492V10.0059H16.1383H16.297V10.1448V10.2837H16.4623C16.5904 10.2837 16.6312 10.28 16.6438 10.2672C16.6566 10.2541 16.66 10.2081 16.66 10.0473C16.66 9.91941 16.6557 9.8439 16.6486 9.8439C16.6424 9.8439 16.6372 9.82544 16.6372 9.80287C16.6372 9.75329 16.5956 9.70502 16.5527 9.70502C16.5368 9.70502 16.5238 9.6998 16.5238 9.69344C16.5238 9.68595 16.3878 9.68187 16.1383 9.68187C15.8888 9.68187 15.7527 9.68595 15.7527 9.69344ZM10.8082 10.1448V10.33H10.6381H10.468V10.1448V9.95964H10.6381H10.8082V10.1448ZM9.51537 10.492V10.9782H9.3566H9.19783V10.492V10.0059H9.3566H9.51537V10.492ZM6.88435 11.4874V11.58H7.0091H7.13385V11.6379V11.6957H6.92972H6.72559V12.1355V12.5754H8.3473C9.96143 12.5754 9.96899 12.5753 9.96899 12.5522C9.96899 12.5291 9.97656 12.5291 13.5928 12.5291H17.2167L17.2445 12.5006L17.2723 12.4722V12.1419C17.2723 11.9293 17.2683 11.8115 17.261 11.8115C17.2548 11.8115 17.2496 11.8033 17.2496 11.7933C17.2496 11.7391 17.4594 11.742 13.5956 11.742C9.98702 11.742 9.97395 11.742 9.95765 11.7189C9.94149 11.696 9.9283 11.6957 8.82109 11.6957H7.70088V11.6379V11.58H9.07309H10.4453V11.4874V11.3948H8.66483H6.88435V11.4874ZM17.1654 11.8049C17.1787 11.8184 17.1817 11.8809 17.1817 12.1521V12.4828H13.5866H9.99167V12.1355V11.7883H13.5704C16.6569 11.7883 17.1514 11.7906 17.1654 11.8049Z" fill="#CC9007"/>
</g>
<defs>
<clipPath id="clip0_9924_1235">
<rect width="10.6339" height="1.1982" fill="white" transform="translate(6.71973 11.424)"/>
</clipPath>
</defs>
</svg>
