<svg width="26" height="26" viewBox="0 0 26 26" fill="none" xmlns="http://www.w3.org/2000/svg">
<path d="M23.5 9.5V3.375C23.5 2.89375 23.1062 2.5 22.625 2.5H16.5C16.0187 2.5 15.625 2.89375 15.625 3.375V9.5C15.625 9.98125 16.0187 10.375 16.5 10.375H22.625C23.1062 10.375 23.5 9.98125 23.5 9.5ZM22.625 0.75C24.0775 0.75 25.25 1.9225 25.25 3.375V9.5C25.25 10.9525 24.0775 12.125 22.625 12.125H16.5C15.0475 12.125 13.875 10.9525 13.875 9.5V3.375C13.875 1.9225 15.0475 0.75 16.5 0.75H22.625Z" fill="black"/>
<path d="M23.5 22.625V16.5C23.5 16.0187 23.1062 15.625 22.625 15.625H16.5C16.0187 15.625 15.625 16.0187 15.625 16.5V22.625C15.625 23.1062 16.0187 23.5 16.5 23.5H22.625C23.1062 23.5 23.5 23.1062 23.5 22.625ZM22.625 13.875C24.0775 13.875 25.25 15.0475 25.25 16.5V22.625C25.25 24.0775 24.0775 25.25 22.625 25.25H16.5C15.0475 25.25 13.875 24.0775 13.875 22.625V16.5C13.875 15.0475 15.0475 13.875 16.5 13.875H22.625Z" fill="black"/>
<path d="M9.5 10.375C9.98125 10.375 10.375 9.98125 10.375 9.5V3.375C10.375 2.89375 9.98125 2.5 9.5 2.5H3.375C2.89375 2.5 2.5 2.89375 2.5 3.375V9.5C2.5 9.98125 2.89375 10.375 3.375 10.375H9.5ZM9.5 0.75C10.9525 0.75 12.125 1.9225 12.125 3.375V9.5C12.125 10.9525 10.9525 12.125 9.5 12.125H3.375C1.9225 12.125 0.75 10.9525 0.75 9.5V3.375C0.75 1.9225 1.9225 0.75 3.375 0.75H9.5Z" fill="black"/>
<path d="M9.5 23.5C9.98125 23.5 10.375 23.1062 10.375 22.625V16.5C10.375 16.0187 9.98125 15.625 9.5 15.625H3.375C2.89375 15.625 2.5 16.0187 2.5 16.5V22.625C2.5 23.1062 2.89375 23.5 3.375 23.5H9.5ZM9.5 13.875C10.9525 13.875 12.125 15.0475 12.125 16.5V22.625C12.125 24.0775 10.9525 25.25 9.5 25.25H3.375C1.9225 25.25 0.75 24.0775 0.75 22.625V16.5C0.75 15.0475 1.9225 13.875 3.375 13.875H9.5Z" fill="black"/>
</svg>
