<svg width="18" height="39" viewBox="0 0 18 39" fill="none" xmlns="http://www.w3.org/2000/svg">
    <path d="M0.113179 28.158C0.151219 29.71 0.193063 31.2621 0.231103 32.8141C0.527815 32.875 0.759859 33.0956 0.816919 33.3695C0.889195 33.7118 0.676171 34.0808 0.303379 34.2102C0.322399 35.5758 0.341419 36.9414 0.360439 38.3071C0.272947 38.3679 0.227299 38.4745 0.246319 38.5734C0.272947 38.7027 0.402283 38.7864 0.524011 38.7712C0.615307 38.7598 0.687583 38.6951 0.718015 38.6228C0.767467 38.5049 0.714211 38.3489 0.577267 38.2576C0.588679 37.5311 0.687583 36.4812 1.12124 35.2981C1.42175 34.4765 1.79835 33.8222 2.1293 33.3391C1.88584 31.5854 1.64619 29.8318 1.40273 28.0781C0.972883 28.1048 0.539227 28.1352 0.109375 28.1618L0.113179 28.158Z" fill="white"/>
    <path d="M1.84786 28.0562C2.15218 28.0258 2.4565 27.9992 2.76463 27.9688C2.82169 28.7828 2.89777 29.6235 3.00047 30.4946C3.12601 31.5978 3.28197 32.6477 3.45315 33.6443C3.04993 34.0704 2.58203 34.6372 2.14838 35.3599C1.62343 36.2348 1.3115 37.0565 1.12891 37.6918C1.15934 37.1782 1.26585 36.4441 1.58539 35.6148C1.92014 34.7551 2.3614 34.1236 2.69615 33.7166C2.52878 32.6819 2.36521 31.632 2.20924 30.5707C2.08371 29.7262 1.96579 28.8855 1.85167 28.0524L1.84786 28.0562Z" fill="white"/>
    <path d="M17.0152 7.35313C16.8516 7.40258 16.6995 7.4254 16.5739 7.43682C16.7489 7.36454 17.0152 7.2276 17.2244 6.96132C17.7113 6.33746 17.5173 5.47015 17.4108 5.00606C16.9239 2.83398 13.5536 0.277692 13.1808 0C12.9145 1.06892 12.3667 2.49542 11.0962 3.47305C10.1718 4.1844 9.4909 4.18059 8.39915 4.87292C7.5851 5.39407 6.51617 6.31844 5.61082 8.0835C5.66788 7.49388 5.78581 6.79394 6.02546 6.03314C6.15099 5.63372 6.28793 5.27615 6.43249 4.95281C5.85428 5.73643 5.13152 6.78633 4.38974 8.07969C4.08922 8.60464 2.5486 11.3093 1.47587 14.7291C-0.239728 20.1916 -0.0761565 25.3042 0.114043 27.7692C0.140671 27.7692 1.42262 27.6893 1.44544 27.6893C1.46827 27.6855 2.74641 27.6094 2.76923 27.6094C2.68935 25.8215 2.86814 24.3836 3.03932 23.4364C3.15724 22.7745 4.15769 17.4337 6.67214 16.148C7.88561 15.5279 8.84042 15.3339 8.84042 15.3339C9.22842 15.254 9.55937 15.2236 10.1071 15.0676C10.712 14.8965 11.1913 14.6834 11.5108 14.5275C11.2331 14.5731 10.7843 14.6074 10.2631 14.459C9.99683 14.3829 9.7762 14.2802 9.60882 14.1851C10.149 14.2726 12.1841 14.5275 14.2003 13.2683C15.8169 12.2603 16.5283 10.8338 16.7718 10.2746C16.6767 10.3355 16.4826 10.4344 16.2164 10.4534C15.9995 10.4686 15.8246 10.4268 15.7257 10.3887C15.855 10.3773 16.0718 10.3431 16.3001 10.229C17.0494 9.85616 17.2891 8.95842 17.4489 8.35358C17.5249 8.06828 17.6162 7.62702 17.62 7.06783C17.4793 7.16293 17.2739 7.27705 17.0114 7.35313H17.0152ZM3.44635 16.5816C3.19528 17.1104 2.17201 19.3243 1.78019 22.4664C1.54054 24.376 1.61662 26.0117 1.74976 27.2176H1.24764C1.03461 25.2395 0.950923 21.7855 2.4535 17.9549C3.46917 15.372 4.8272 13.5955 5.48149 12.8081C6.85092 11.1495 8.26601 10.0121 9.33874 9.27415C9.35015 9.10297 9.37678 8.88234 9.45286 8.63888C9.53655 8.35738 9.65447 8.13675 9.74957 7.97698C9.6849 8.12914 9.61643 8.31934 9.56698 8.54378C9.51372 8.78343 9.4947 9.00026 9.4909 9.17524C9.74577 8.99646 10.0159 8.81767 10.305 8.64268C10.9478 8.25087 11.5679 7.94275 12.1385 7.69549C11.3625 8.11012 10.4952 8.63127 9.59361 9.28936C8.51327 10.0768 7.63455 10.8832 6.93081 11.606C7.04493 11.625 7.16666 11.6402 7.28838 11.6516C8.07581 11.7239 8.77575 11.6212 9.35015 11.4653C9.04583 11.5794 8.65402 11.6935 8.18993 11.7582C7.63455 11.8342 7.15905 11.8152 6.79767 11.7696C5.75537 12.8461 4.47723 14.4324 3.45015 16.5816H3.44635Z" fill="white"/>
    </svg>
    