<svg width="580" height="179" viewBox="0 0 580 179" fill="none" xmlns="http://www.w3.org/2000/svg">
<path d="M118.798 132.019C118.798 157.707 97.8969 178.626 72.2086 178.626C46.5204 178.626 25.6016 157.725 25.6016 132.019C25.6016 106.313 46.5028 85.4297 72.2086 85.4297C97.9144 85.4297 118.816 106.331 118.798 132.019ZM98.5456 132.019C98.5456 117.483 86.7273 105.665 72.1911 105.665C57.6549 105.665 45.8365 117.483 45.8365 132.019C45.8365 146.555 57.6549 158.374 72.1911 158.374C86.7273 158.374 98.5456 146.555 98.5456 132.019Z" fill="#171717"/>
<path d="M148.558 142.135C152.538 151.656 161.937 158.354 172.879 158.354C179.612 158.354 185.767 155.812 190.431 151.621L208.474 162.019C199.917 172.154 187.134 178.607 172.879 178.607C147.19 178.607 126.289 157.688 126.289 132C126.289 106.311 147.173 85.4102 172.879 85.4102C187.134 85.4102 199.917 91.8454 208.474 101.963C213.261 107.627 216.715 114.412 218.381 121.882C219.117 125.144 219.486 128.51 219.486 132C219.486 135.489 219.1 138.873 218.381 142.135H148.558ZM148.558 121.882H197.199C195.691 118.217 193.341 114.974 190.431 112.378C185.767 108.188 179.612 105.645 172.879 105.645C161.937 105.645 152.538 112.343 148.558 121.865V121.882Z" fill="#171717"/>
<path d="M274.021 156.721V176.974H269.374C249.893 176.974 234.024 161.105 234.024 141.624V107.168H225.625V86.9157H234.024V68.6621L254.277 81.778V86.9157H272.513V107.168H254.277V141.624C254.277 149.953 261.045 156.739 269.391 156.739H274.038L274.021 156.721Z" fill="#171717"/>
<path d="M284.03 71.0305C283.03 64.8232 287.238 58.9842 293.446 57.9847C299.653 56.9852 305.492 61.1936 306.492 67.4008C307.491 73.6081 303.283 79.4471 297.093 80.4466C290.886 81.4461 285.047 77.2377 284.047 71.0305H284.03ZM285.117 99.875L305.369 86.9169V177.08H285.117V99.875Z" fill="#171717"/>
<path d="M396.095 154.022C393.815 165.297 382.541 178.01 358.29 178.01C357.273 178.01 356.256 177.992 355.204 177.94C335.636 177.098 318.627 164.21 317.908 163.649L330.217 147.57C330.34 147.657 342.983 157.144 356.081 157.705C371.213 158.354 376.263 153.391 376.263 149.99C376.263 147.254 373.738 145.536 372.23 144.712C368.969 142.923 363.673 142.046 356.589 142.046C341.667 141.871 329.674 137.207 322.8 128.79C318.206 123.179 316.418 116.446 317.75 109.835C320.117 98.1045 332.251 84.7782 358.641 85.918C378.21 86.7421 395.218 99.6476 395.937 100.191L383.628 116.27C383.505 116.165 370.863 106.802 357.782 106.135C339.283 105.189 337.319 110.782 337.599 113.851C337.67 114.622 338.16 115.587 338.476 115.972C340.791 118.795 346.928 121.811 357.273 121.811C372.178 121.969 384.171 126.651 391.062 135.068C395.657 140.679 397.445 147.412 396.112 154.022H396.095Z" fill="#171717"/>
<path d="M452.067 156.721V176.974H447.421C427.94 176.974 412.071 161.105 412.071 141.624V107.168H403.672V86.9157H412.071V68.6621L432.323 81.778V86.9157H450.559V107.168H432.323V141.624C432.323 149.953 439.092 156.739 447.438 156.739H452.085L452.067 156.721Z" fill="#171717"/>
<path d="M462.077 71.0305C461.077 64.8232 465.285 58.9842 471.493 57.9847C477.7 56.9852 483.539 61.1936 484.538 67.4008C485.538 73.6081 481.33 79.4471 475.14 80.4466C468.933 81.4461 463.094 77.2377 462.094 71.0305H462.077ZM463.164 99.875L483.416 86.9169V177.08H463.164V99.875Z" fill="#171717"/>
<path d="M579.195 159.461C570.726 171.069 557.014 178.626 541.566 178.626C515.878 178.626 494.977 157.707 494.977 132.019C494.977 106.331 515.86 85.4297 541.566 85.4297C557.014 85.4297 570.726 92.952 579.178 104.56L561.485 114.783C556.646 109.189 549.527 105.665 541.566 105.665C527.047 105.665 515.229 117.483 515.229 132.002C515.229 146.52 527.047 158.356 541.566 158.356C549.527 158.356 556.681 154.797 561.503 149.221L579.195 159.443V159.461Z" fill="#171717"/>
<path d="M0.525347 129.788C0.700693 136.942 0.893574 144.096 1.06892 151.251C2.43662 151.531 3.50624 152.548 3.76925 153.811C4.10241 155.389 3.12047 157.09 1.40208 157.686C1.48975 163.981 1.57743 170.276 1.6651 176.571C1.2618 176.851 1.05139 177.342 1.13906 177.798C1.2618 178.394 1.85798 178.78 2.41909 178.71C2.83992 178.657 3.17308 178.359 3.31335 178.026C3.5413 177.482 3.29582 176.763 2.66457 176.343C2.71718 172.993 3.17308 168.154 5.17203 162.701C6.55726 158.913 8.29319 155.897 9.8187 153.67C8.69649 145.587 7.5918 137.503 6.46959 129.42C4.48817 129.543 2.48923 129.683 0.507812 129.806L0.525347 129.788Z" fill="#171717"/>
<path d="M8.50936 129.315C9.91213 129.175 11.3149 129.052 12.7352 128.912C12.9982 132.665 13.3489 136.54 13.8224 140.555C14.401 145.64 15.1199 150.48 15.909 155.074C14.0503 157.038 11.8935 159.65 9.89459 162.982C7.47481 167.015 6.03697 170.802 5.19531 173.731C5.33559 171.363 5.82656 167.979 7.29947 164.157C8.84252 160.194 10.8765 157.283 12.4196 155.407C11.6481 150.638 10.8941 145.798 10.1751 140.906C9.5965 137.013 9.05293 133.138 8.52689 129.298L8.50936 129.315Z" fill="#171717"/>
<path d="M78.4321 33.8944C77.6781 34.1224 76.9767 34.2276 76.398 34.2802C77.2046 33.947 78.4321 33.3158 79.3965 32.0884C81.6409 29.2127 80.7466 25.2148 80.2557 23.0756C78.0112 13.0633 62.4755 1.28003 60.7572 0C59.5297 4.92723 57.0047 11.5027 51.1482 16.0091C46.8873 19.2881 43.7486 19.2706 38.7161 22.4619C34.9637 24.8641 30.0365 29.125 25.8632 37.2611C26.1262 34.5432 26.6698 31.3169 27.7745 27.8099C28.3531 25.9688 28.9844 24.3205 29.6507 22.8301C26.9854 26.4422 23.6539 31.2818 20.2346 37.2436C18.8494 39.6633 11.7479 52.1305 6.80308 67.8941C-1.10503 93.0738 -0.351045 116.64 0.525686 128.003C0.648429 128.003 6.5576 127.635 6.66281 127.635C6.76802 127.617 12.6597 127.266 12.7649 127.266C12.3966 119.025 13.2208 112.397 14.0098 108.031C14.5534 104.98 19.165 80.3612 30.7554 74.4345C36.3489 71.5764 40.7501 70.6821 40.7501 70.6821C42.5387 70.3139 44.0642 70.1736 46.5892 69.4547C49.3772 68.6656 51.5865 67.6837 53.0594 66.9648C51.7794 67.1752 49.7103 67.333 47.3081 66.6491C46.0807 66.2984 45.0637 65.825 44.2921 65.3866C46.782 65.7899 56.1631 66.9648 65.4564 61.1608C72.9087 56.5141 76.1876 49.9386 77.3098 47.361C76.8715 47.6416 75.9772 48.0975 74.7498 48.1852C73.7503 48.2553 72.9437 48.0624 72.4878 47.8871C73.084 47.8345 74.0835 47.6767 75.1355 47.1506C78.5899 45.4322 79.6945 41.2941 80.431 38.506C80.7817 37.191 81.2025 35.1569 81.2201 32.5793C80.5713 33.0177 79.6244 33.5437 78.4145 33.8944H78.4321ZM15.886 76.4335C14.7287 78.8708 10.0119 89.0759 8.20585 103.56C7.10117 112.362 7.45187 119.902 8.06558 125.46H5.75101C4.76907 116.342 4.3833 100.421 11.3095 82.7635C15.9912 70.8574 22.2511 62.6688 25.2671 59.0391C31.5795 51.394 38.1024 46.1511 43.0472 42.7494C43.0998 41.9604 43.2225 40.9434 43.5732 39.8211C43.959 38.5236 44.5025 37.5066 44.9409 36.7701C44.6428 37.4715 44.3272 38.3482 44.0992 39.3828C43.8538 40.4875 43.7661 41.4869 43.7486 42.2935C44.9234 41.4694 46.1683 40.6453 47.501 39.8387C50.4643 38.0326 53.3225 36.6123 55.9527 35.4726C52.3756 37.3838 48.3777 39.7861 44.222 42.8196C39.2422 46.4492 35.1917 50.1666 31.9477 53.4982C32.4738 53.5858 33.0349 53.656 33.596 53.7086C37.2257 54.0417 40.452 53.5683 43.0998 52.8494C41.697 53.3754 39.8909 53.9015 37.7517 54.1995C35.1917 54.5502 32.9998 54.4626 31.334 54.2522C26.5295 59.2145 20.6379 66.5264 15.9036 76.4335H15.886Z" fill="#171717"/>
</svg>
